<?xml version="1.0" encoding="UTF-8" standalone="no"?>
<!-- Created with Inkscape (http://www.inkscape.org/) -->

<svg
   xmlns:dc="http://purl.org/dc/elements/1.1/"
   xmlns:cc="http://creativecommons.org/ns#"
   xmlns:rdf="http://www.w3.org/1999/02/22-rdf-syntax-ns#"
   xmlns:svg="http://www.w3.org/2000/svg"
   xmlns="http://www.w3.org/2000/svg"
   xmlns:sodipodi="http://sodipodi.sourceforge.net/DTD/sodipodi-0.dtd"
   xmlns:inkscape="http://www.inkscape.org/namespaces/inkscape"
   width="964.50409"
   height="746.02209"
   id="svg2"
   version="1.1"
   inkscape:version="0.48.2 r9819"
   sodipodi:docname="gazie_pig.svg">
  <defs
     id="defs4" />
  <sodipodi:namedview
     id="base"
     pagecolor="#ffffff"
     bordercolor="#666666"
     borderopacity="1.0"
     inkscape:pageopacity="0.0"
     inkscape:pageshadow="2"
     inkscape:zoom="0.7670885"
     inkscape:cx="258.0276"
     inkscape:cy="336.98847"
     inkscape:document-units="px"
     inkscape:current-layer="g3761"
     showgrid="false"
     fit-margin-top="0"
     fit-margin-left="0"
     fit-margin-right="0"
     fit-margin-bottom="0"
     inkscape:window-width="1366"
     inkscape:window-height="706"
     inkscape:window-x="-8"
     inkscape:window-y="-8"
     inkscape:window-maximized="1" />
  <metadata
     id="metadata7">
    <rdf:RDF>
      <cc:Work
         rdf:about="">
        <dc:format>image/svg+xml</dc:format>
        <dc:type
           rdf:resource="http://purl.org/dc/dcmitype/StillImage" />
        <dc:title />
      </cc:Work>
    </rdf:RDF>
  </metadata>
  <g
     inkscape:label="Livello 1"
     inkscape:groupmode="layer"
     id="layer1"
     transform="translate(139.3949,-130.77971)">
    <g
       id="g3007"
       transform="translate(-1808.5714,-151.42857)">
      <g
         id="g3761">
        <path
           style="fill:#010101"
           d="M 338.15625 72.03125 C 316.20152 72.02942 299.28463 75.477375 277.59375 80.96875 C 217.87325 96.08792 165.47205 131.11223 122.65625 184.5 C 113.41345 196.02513 99.7319 216.5672 93.8125 227.78125 C 87.56 239.62616 87.31715 239.82268 87.78125 233.1875 C 88.11365 228.43495 87.7832 226.93113 85.8125 224.03125 C 77.3076 211.51582 60.6328 210.79133 46 222.3125 C 39.3295 227.56451 28.80485 241.17745 24.71875 249.84375 C 20.90985 257.92209 19.9465 267.95361 22.375 274.3125 C 24.4339 279.70373 29.8756 285.03738 37 288.65625 C 46.2942 293.37725 57.1535 292.16274 66.75 285.34375 C 68.8621 283.843 69 283.87702 69 285.71875 C 69 286.79785 68.1572 291.01827 67.125 295.09375 C 61.6876 316.5619 59.7985 331.85152 59.8125 354.5 C 59.8267 378.13758 62.9341 397.32634 70.125 418.28125 L 73.15625 427.09375 L 71.09375 435.78125 C 66.03305 457.38402 67.1467 471.21619 77.5625 516 C 79.0009 522.18442 80.0191 526.50498 82.0625 535.5 C 82.5622 537.7 85.218 550.075 88 563 C 90.7821 575.92498 93.76495 589.425 94.59375 593 C 95.42255 596.575 96.50535 601.4125 97.03125 603.75 C 97.55705 606.0875 98.43185 609.9125 98.96875 612.25 C 99.50565 614.5875 101.7768 624.91935 104 635.21875 L 108.03125 653.9375 L 104.59375 662.71875 L 101.1875 671.5 L 95.84375 672.71875 C 90.54195 673.94225 51.0461 682.69555 29 687.53125 C 22.675 688.91855 14.69425 690.72015 11.28125 691.53125 C 7.86825 692.34225 3.93075 693 2.53125 693 L 0 693 L 0 707 C 0 714.7 0.1125 721.04675 0.25 721.09375 C 0.3875 721.14045 137.3 726.67535 304.5 733.40625 C 471.7 740.13715 612.0795 745.74025 616.4375 745.84375 L 624.34375 746.03125 L 633.4375 739.1875 C 638.4295 735.4251 649.25 727.3446 657.5 721.25 C 665.75 715.15536 678.35 705.83025 685.5 700.53125 L 698.5 690.90625 L 699.15625 685.71875 C 699.51435 682.85625 699.85325 677.8 699.90625 674.5 L 700 668.5 L 685.75 668.15625 C 677.9141 667.96465 665.65 667.51465 658.5 667.15625 L 645.5 666.5 L 642.875 661 C 640.2994 655.6308 640.2536 655.3216 641.5 648 C 642.2022 643.875 644.44325 630.825 646.46875 619 C 653.25925 579.3563 657.1104 556.6367 660.0625 539.0625 C 661.6749 529.46372 663.41265 521.1811 663.90625 520.6875 C 664.94215 519.65167 672.9272 518.71725 699.5 516.5 C 765.35 511.00546 806.0295 502.26139 839.8125 486.34375 C 848.1843 482.39921 856.7356 477.42713 873 467.03125 C 901.3433 448.91482 904.749 447.1426 916.8125 444.0625 C 927.0885 441.4388 934 438.44154 934 436.65625 C 934 435.88587 933.1 434.11717 932 432.71875 C 930.9 431.32033 930 429.3241 930 428.28125 C 930 425.67697 934.9182 421.24737 945.125 414.65625 C 954.0427 408.89752 958.649 404.43911 959.5 400.6875 C 959.8915 398.96133 962.8988 356.79129 964.25 334.03125 L 964.5 329.59375 L 929 325.84375 C 909.475 323.78612 890.8 321.38526 887.5 320.5 C 878.2382 318.0154 868.5567 311.69105 858.25 301.40625 L 849 292.1875 L 849 284.34375 C 848.9738 249.52154 830.9448 201.53446 809.75 179.875 C 793.9111 163.6888 765.654 156.46699 728 158.9375 C 722.6118 159.29103 720.3027 158.88215 714.5 156.59375 C 705.7622 153.14784 691.94455 149.55406 681.53125 148 C 670.47235 146.34958 647.2271 146.57275 637.5625 148.4375 C 633.2008 149.27907 629.4034 149.74717 629.125 149.46875 C 628.8466 149.19033 578.3444 128.66008 564.0625 123.75 C 525.2016 105.63232 484.6927 94.71153 462.75 89.21875 C 432.9779 80.27915 425.3924 80.66238 385.25 76.0625 C 366.31287 73.280476 351.32909 72.032348 338.15625 72.03125 z M 260.96875 202.40625 C 287.56421 202.40654 310.09928 210.89093 328.5625 227.84375 C 341.75022 239.87524 353.03338 257.64088 362.375 281.15625 L 306.8125 309.65625 C 302.08669 296.53146 296.57656 286.6877 290.3125 280.125 C 281.30064 270.82836 270.60605 266.18772 258.1875 266.1875 C 232.80071 266.18772 215.09453 282.54321 205.09375 315.21875 C 201.35712 327.25014 199.49991 339.67985 199.5 352.53125 C 199.49991 379.19149 206.2635 401.41417 219.78125 419.1875 C 229.78194 432.44926 243.13897 439.06254 259.84375 439.0625 C 274.67999 439.06254 286.41156 433.67582 295.09375 422.875 C 300.80839 415.76571 304.55397 405.22663 306.3125 391.28125 L 258.34375 391.28125 L 258.34375 335.90625 L 374.40625 335.90625 C 374.40598 366.2579 371.65096 391.01574 366.15625 410.15625 C 357.80364 439.27736 344.01337 461.71489 324.78125 477.4375 C 306.20811 492.47655 284.23036 499.96874 258.84375 499.96875 C 217.52152 499.96874 185.80841 482.46872 163.71875 447.46875 C 147.01397 420.94541 138.65625 389.30865 138.65625 352.53125 C 138.65625 311.78929 148.43794 277.53534 168 249.78125 C 190.19958 218.19952 221.18512 202.40654 260.96875 202.40625 z M 476.59375 211.4375 L 540.40625 211.4375 L 625.125 491.375 L 562.65625 491.375 L 548.15625 442.5625 L 467.375 442.5625 L 451.875 491.375 L 390.0625 491.375 L 476.59375 211.4375 z M 62.25 221.125 C 63.127047 221.09407 64.047738 221.12088 64.96875 221.1875 C 71.90325 221.68909 76.36725 224.58275 78.03125 229.625 C 79.06755 232.7649 78.99385 233.53575 77.28125 235.84375 C 76.19945 237.30167 73.67365 238.92605 71.65625 239.4375 C 66.37635 240.776 66.7737 243.39672 72.5 245 C 74.975 245.69296 77 246.68244 77 247.1875 C 77 248.39117 62.92275 266.84527 59.84375 269.6875 C 58.53155 270.89875 55.81855 272.58625 53.78125 273.4375 C 46.88075 276.32069 41.0659 275.09719 35.5625 269.59375 C 30.3603 264.39155 29.28885 259.19294 31.59375 250.34375 C 33.50585 243.00287 37.53785 236.67659 44.53125 230.0625 C 50.916125 224.02401 56.110671 221.34151 62.25 221.125 z M 791.28125 278.625 C 792.29756 278.6669 793.71631 279.03608 795.5625 279.65625 C 809.2845 284.26578 819.8199 296.93869 820.75 309.9375 C 821.9759 327.07131 811.2455 341.40745 792.875 347.125 C 788.66 348.43686 784.03515 348.96855 777.65625 348.90625 C 764.03955 348.77334 755.93255 346.01454 747.21875 338.5 C 743.00105 334.86278 739.33135 329.32487 740.40625 328.25 C 740.70975 327.94652 744.89415 329.09804 749.71875 330.8125 C 760.61785 334.68564 770.201 336.9807 775.75 337 C 779.167 337.01189 780.7307 336.35334 783.75 333.65625 C 786.6299 331.08374 788.7 330.14342 792.6875 329.6875 C 804.7719 328.30578 814 319.15008 814 308.5 C 814 298.55456 806.75835 290.53772 795.03125 287.53125 C 791.23685 286.55848 790.4103 285.89441 789.625 283.15625 C 788.70368 279.94391 789.04538 278.53281 791.28125 278.625 z M 508.09375 297.96875 L 483.53125 387.1875 L 532.3125 387.1875 L 508.09375 297.96875 z M 281.40625 584.6875 C 283.24526 584.67647 290.17469 585.82987 298.1875 587.46875 C 330.835 594.14635 355.249 596.79645 391.5 597.65625 C 414.831 598.20955 452.3511 596.9857 461.5625 595.375 C 464.4877 594.8635 465.9498 596.26195 495.0625 627.40625 C 511.8053 645.31735 525.4765 660.3321 525.4375 660.75 C 525.3399 661.7926 524.4399 661.79735 508.5 660.84375 C 500.8 660.38315 487.975 659.8044 480 659.5625 C 472.025 659.3206 454.925 658.57285 442 657.90625 C 429.075 657.23965 414.45 656.55815 409.5 656.40625 C 404.55 656.25425 387.675 655.5951 372 654.9375 C 356.325 654.2799 342.15 653.74 340.5 653.75 C 338.85 653.7553 330.75 653.37985 322.5 652.90625 C 314.25 652.43275 292.2 651.5725 273.5 651 C 237.0601 649.8843 230 649.3617 230 647.8125 C 230 646.7064 234.29275 641.1924 243.96875 629.875 C 247.55455 625.681 252.75 619.38 255.5 615.875 C 259.3133 611.0148 276.344 590.20055 280.9375 584.78125 C 280.9798 584.73135 281.14353 584.68908 281.40625 584.6875 z "
           transform="translate(1669.1765,282.20828)"
           id="path3009-1" />
        <g
           id="text3752"
           style="font-size:376.55847168px;font-style:normal;font-variant:normal;font-weight:bold;font-stretch:normal;line-height:125%;letter-spacing:0px;word-spacing:0px;fill:#ffffff;fill-opacity:1;stroke:none;font-family:Aharoni;-inkscape-font-specification:Aharoni Bold"
           transform="scale(0.8965688,1.1153634)" />
      </g>
    </g>
  </g>
</svg>
